<?xml version="1.0" encoding="utf-8" ?>
<svg xmlns="http://www.w3.org/2000/svg" xmlns:xlink="http://www.w3.org/1999/xlink" width="40" height="41">
	<path fill="#F89B2B" d="M40 20Q40 20.490973 39.975914 20.981354Q39.95182 21.471735 39.903698 21.960344Q39.855572 22.448952 39.783527 22.934608Q39.711487 23.420265 39.615704 23.901806Q39.51992 24.383343 39.40062 24.859602Q39.281326 25.335861 39.138805 25.805693Q38.996284 26.275524 38.830879 26.737797Q38.665474 27.200066 38.477589 27.653666Q38.289703 28.107265 38.079784 28.551098Q37.869865 28.994932 37.638424 29.427933Q37.406982 29.860931 37.154568 30.282051Q36.902157 30.703171 36.629387 31.111401Q36.356617 31.51963 36.064148 31.913982Q35.771675 32.308334 35.460209 32.687862Q35.148739 33.06739 34.819019 33.431175Q34.489304 33.794964 34.142136 34.142136Q33.794964 34.489304 33.431179 34.819023Q33.06739 35.148743 32.687866 35.460213Q32.308338 35.771683 31.913984 36.064152Q31.51963 36.356621 31.111401 36.629391Q30.703171 36.902161 30.282051 37.154572Q29.860931 37.406982 29.427933 37.638424Q28.994932 37.869865 28.5511 38.079784Q28.107265 38.289703 27.653667 38.477589Q27.200068 38.665474 26.737795 38.830879Q26.275524 38.996284 25.805693 39.138805Q25.335861 39.281326 24.859602 39.400627Q24.383343 39.51992 23.901806 39.615707Q23.420265 39.711491 22.934608 39.783531Q22.448952 39.855576 21.960344 39.903698Q21.471735 39.95182 20.981354 39.97591Q20.490973 40 20 40Q19.509027 40 19.018646 39.97591Q18.528265 39.95182 18.039658 39.903698Q17.551048 39.855572 17.06539 39.783527Q16.579731 39.711487 16.098192 39.615704Q15.616653 39.51992 15.140394 39.40062Q14.664137 39.281326 14.194306 39.138805Q13.724474 38.996284 13.262202 38.830879Q12.79993 38.665474 12.346331 38.477589Q11.892731 38.289703 11.448898 38.079784Q11.005064 37.869865 10.572065 37.638424Q10.139067 37.406982 9.7179451 37.154568Q9.2968235 36.902157 8.8885946 36.629387Q8.4803658 36.356617 8.0860128 36.064148Q7.6916609 35.771675 7.3121338 35.460209Q6.9326067 35.148739 6.56882 34.819019Q6.2050338 34.489304 5.8578639 34.142136Q5.510694 33.794964 5.1809769 33.431179Q4.8512602 33.06739 4.5397906 32.687866Q4.2283211 32.308338 3.9358487 31.913984Q3.6433768 31.51963 3.3706071 31.111401Q3.0978374 30.703171 2.845427 30.282051Q2.5930171 29.860931 2.3615744 29.427933Q2.1301317 28.994932 1.9202138 28.5511Q1.7102962 28.107265 1.5224091 27.653667Q1.334522 27.200068 1.1691184 26.737795Q1.0037149 26.275524 0.86119318 25.805693Q0.71867144 25.335861 0.59937489 24.859602Q0.48007828 24.383343 0.38429433 23.901806Q0.28851038 23.420265 0.21646976 22.934608Q0.14442916 22.448952 0.09630546 21.960344Q0.048181746 21.471735 0.024090873 20.981354Q0 20.490973 0 20Q0 19.509027 0.024090873 19.018646Q0.048181746 18.528265 0.09630546 18.039658Q0.14442916 17.551048 0.21646976 17.06539Q0.28851038 16.579731 0.38429433 16.098192Q0.48007828 15.616653 0.59937483 15.140394Q0.71867144 14.664137 0.86119318 14.194306Q1.0037149 13.724474 1.1691185 13.262202Q1.334522 12.79993 1.5224091 12.346331Q1.7102962 11.892731 1.9202138 11.448898Q2.1301317 11.005064 2.3615744 10.572065Q2.5930171 10.139067 2.8454275 9.7179451Q3.0978374 9.2968235 3.3706071 8.8885946Q3.6433768 8.4803658 3.9358487 8.0860128Q4.2283211 7.6916609 4.5397906 7.3121338Q4.8512602 6.9326067 5.1809769 6.56882Q5.510694 6.2050338 5.8578639 5.8578639Q6.2050338 5.510694 6.56882 5.1809769Q6.9326072 4.8512602 7.3121343 4.5397906Q7.6916609 4.2283211 8.0860138 3.9358487Q8.4803658 3.6433768 8.8885946 3.3706071Q9.2968235 3.0978374 9.7179451 2.845427Q10.139067 2.5930171 10.572065 2.3615744Q11.005064 2.1301317 11.448896 1.9202138Q11.892731 1.7102962 12.34633 1.5224091Q12.799929 1.334522 13.262201 1.1691184Q13.724474 1.0037149 14.194306 0.86119318Q14.664138 0.71867144 15.140396 0.59937489Q15.616655 0.48007828 16.098194 0.38429433Q16.579731 0.28851038 17.06539 0.21646976Q17.551048 0.14442916 18.039658 0.09630546Q18.528265 0.048181746 19.018646 0.024090873Q19.509027 0 20 0Q20.490973 0 20.981354 0.024090873Q21.471735 0.048181746 21.960344 0.09630546Q22.448952 0.14442916 22.934608 0.21646976Q23.420265 0.28851038 23.901806 0.38429433Q24.383343 0.48007828 24.859602 0.59937483Q25.335861 0.71867144 25.805693 0.86119318Q26.275524 1.0037149 26.737797 1.1691185Q27.200066 1.334522 27.653666 1.5224091Q28.107265 1.7102962 28.551098 1.9202138Q28.994932 2.1301317 29.427933 2.3615744Q29.860931 2.5930171 30.282051 2.8454275Q30.703171 3.0978374 31.111401 3.3706071Q31.51963 3.6433768 31.913982 3.9358487Q32.308334 4.2283211 32.687862 4.5397906Q33.06739 4.8512602 33.431175 5.1809769Q33.794964 5.510694 34.142136 5.8578639Q34.489304 6.2050338 34.819023 6.56882Q35.148743 6.9326072 35.460213 7.3121343Q35.771683 7.6916609 36.064152 8.0860138Q36.356621 8.4803658 36.629391 8.8885946Q36.902161 9.2968235 37.154572 9.7179451Q37.406982 10.139067 37.638424 10.572065Q37.869865 11.005064 38.079784 11.448896Q38.289703 11.892731 38.477589 12.34633Q38.665474 12.799929 38.830879 13.262201Q38.996284 13.724474 39.138805 14.194306Q39.281326 14.664138 39.400627 15.140396Q39.51992 15.616655 39.615707 16.098194Q39.711491 16.579731 39.783531 17.06539Q39.855576 17.551048 39.903698 18.039658Q39.95182 18.528265 39.975914 19.018646Q40 19.509027 40 20Z"/>
	<path fill="white" transform="translate(9.9375 7.66406)" d="M9.375 0.0234375C10 0.2109375 10.5625 0.3359375 11.1875 0.4609375C11.375 0.5234375 11.375 0.5859375 11.3125 0.7109375C11.0625 1.7109375 10.8125 2.7734375 10.5625 3.7734375C10.5625 3.8359375 10.5625 3.8984375 10.5 4.0234375C11 4.1484375 11.5625 4.2734375 12.0625 4.3984375C12.125 4.3984375 12.1875 4.2734375 12.25 4.2109375C12.4375 3.3984375 12.625 2.6484375 12.875 1.8359375C12.9375 1.5859375 13 1.3359375 13.0625 1.0859375C13.0625 0.9609375 13.125 0.8984375 13.25 0.9609375C13.875 1.1484375 14.5 1.2734375 15.1875 1.4609375C15.25 1.4609375 15.25 1.5234375 15.3125 1.5234375C15.125 2.3359375 14.9375 3.0859375 14.75 3.8359375C14.6875 4.1484375 14.625 4.4609375 14.5 4.7734375C14.4375 4.9609375 14.5 5.0234375 14.6875 5.0859375C15.375 5.3984375 16.0625 5.7109375 16.75 6.0234375C17.375 6.3984375 17.9375 6.8984375 18.375 7.5234375C18.9375 8.4609375 19 9.4609375 18.75 10.460938C18.5625 11.148438 18.3125 11.773438 17.8125 12.273438C17.4375 12.648438 16.9375 12.898438 16.4375 13.085938C16.375 13.085938 16.3125 13.148438 16.1875 13.148438C16.4375 13.335938 16.6875 13.460938 16.9375 13.648438C17.6875 14.210938 18.1875 14.898438 18.4375 15.773438C18.5625 16.460938 18.5 17.210938 18.3125 17.898438C18.0625 18.773438 17.75 19.523438 17.1875 20.210938C16.5 21.023438 15.625 21.460938 14.625 21.585938C13.3125 21.773438 12.0625 21.648438 10.8125 21.460938C10.625 21.398438 10.5 21.460938 10.4375 21.648438C10.1875 22.648438 9.9375 23.710938 9.6875 24.710938C9.625 24.960938 9.625 25.023438 9.3125 24.898438C8.75 24.773438 8.125 24.585938 7.5625 24.460938C7.375 24.398438 7.375 24.335938 7.4375 24.210938C7.6875 23.148438 7.9375 22.085938 8.25 21.085938C8.25 20.960938 8.3125 20.898438 8.1875 20.835938C7.6875 20.710938 7.1875 20.585938 6.625 20.460938C6.5 21.023438 6.3125 21.585938 6.1875 22.148438C6.0625 22.710938 5.875 23.273438 5.75 23.835938C5.6875 23.960938 5.6875 24.023438 5.5 23.960938C4.875 23.773438 4.25 23.648438 3.625 23.523438C3.4375 23.460938 3.4375 23.398438 3.5 23.273438C3.75 22.210938 4 21.148438 4.3125 20.148438C4.3125 20.085938 4.375 20.023438 4.375 19.898438C2.9375 19.523438 1.5 19.148438 0 18.773438C0.125 18.523438 0.1875 18.335938 0.3125 18.085938C0.5625 17.523438 0.8125 16.960938 1 16.460938C1.0625 16.273438 1.125 16.273438 1.3125 16.273438C1.75 16.398438 2.25 16.523438 2.6875 16.585938C3.1875 16.710938 3.5625 16.460938 3.625 16.023438C4.4375 12.835938 5.25 9.6484375 6 6.3984375C6.125 5.8984375 5.8125 5.3359375 5.25 5.1484375C4.6875 4.9609375 4.125 4.8359375 3.625 4.7109375C3.5 4.7109375 3.4375 4.6484375 3.5 4.5234375C3.625 4.065104 3.75 3.5789931 3.875 3.1021411L4.0190001 2.559L4.5625 2.6947339C5.0208335 2.8012152 5.4791665 2.8984375 5.9375 3.0234375C6.625 3.2109375 7.3125 3.3359375 8 3.5234375C8.1875 3.5859375 8.25 3.5234375 8.3125 3.3359375C8.5625 2.2734375 8.8125 1.2734375 9.0625 0.2109375C9.125 0.0234375 9.1875 -0.0390625 9.375 0.0234375ZM8.1875 13.460938C8.0625 14.085938 7.875 14.648438 7.75 15.273438C7.5 16.148438 7.3125 17.023438 7.0625 17.960938C7.125 17.960938 7.1875 18.023438 7.1875 18.023438C8.1875 18.273438 9.25 18.585938 10.3125 18.648438C11.0625 18.710938 11.75 18.710938 12.4375 18.460938C13.625 18.085938 14.125 16.523438 13.4375 15.523438C13.125 15.023438 12.625 14.710938 12.125 14.398438C11 13.773438 9.6875 13.523438 8.4375 13.273438C8.25 13.210938 8.25 13.273438 8.1875 13.460938ZM9.75 6.9609375C9.4375 8.2734375 9.125 9.5234375 8.75 10.835938C8.6875 10.960938 8.75 11.023438 8.875 11.085938C9.125 11.148438 9.3125 11.210938 9.5625 11.273438C10.5 11.398438 11.3125 11.585938 12.3125 11.585938C12.4375 11.585938 12.75 11.523438 13 11.460938C14.1875 11.210938 14.8125 9.8359375 14.1875 8.7734375C13.875 8.2109375 13.3125 7.8359375 12.75 7.5859375C11.875 7.2109375 11 7.0234375 10.0625 6.7734375C9.875 6.7109375 9.8125 6.7734375 9.75 6.9609375Z" fill-rule="evenodd"/>
</svg>
