<?xml version="1.0" encoding="utf-8" ?>
<svg xmlns="http://www.w3.org/2000/svg" xmlns:xlink="http://www.w3.org/1999/xlink" width="40" height="41">
	<path fill="#5C7EE7" d="M40 20Q40 20.490973 39.975914 20.981354Q39.95182 21.471735 39.903698 21.960344Q39.855572 22.448952 39.783527 22.934608Q39.711487 23.420265 39.615704 23.901806Q39.51992 24.383343 39.40062 24.859602Q39.281326 25.335861 39.138805 25.805693Q38.996284 26.275524 38.830879 26.737797Q38.665474 27.200066 38.477589 27.653666Q38.289703 28.107265 38.079784 28.551098Q37.869865 28.994932 37.638424 29.427933Q37.406982 29.860931 37.154568 30.282051Q36.902157 30.703171 36.629387 31.111401Q36.356617 31.51963 36.064148 31.913982Q35.771675 32.308334 35.460209 32.687862Q35.148739 33.06739 34.819019 33.431175Q34.489304 33.794964 34.142136 34.142136Q33.794964 34.489304 33.431179 34.819023Q33.06739 35.148743 32.687866 35.460213Q32.308338 35.771683 31.913984 36.064152Q31.51963 36.356621 31.111401 36.629391Q30.703171 36.902161 30.282051 37.154572Q29.860931 37.406982 29.427933 37.638424Q28.994932 37.869865 28.5511 38.079784Q28.107265 38.289703 27.653667 38.477589Q27.200068 38.665474 26.737795 38.830879Q26.275524 38.996284 25.805693 39.138805Q25.335861 39.281326 24.859602 39.400627Q24.383343 39.51992 23.901806 39.615707Q23.420265 39.711491 22.934608 39.783531Q22.448952 39.855576 21.960344 39.903698Q21.471735 39.95182 20.981354 39.97591Q20.490973 40 20 40Q19.509027 40 19.018646 39.97591Q18.528265 39.95182 18.039658 39.903698Q17.551048 39.855572 17.06539 39.783527Q16.579731 39.711487 16.098192 39.615704Q15.616653 39.51992 15.140394 39.40062Q14.664137 39.281326 14.194306 39.138805Q13.724474 38.996284 13.262202 38.830879Q12.79993 38.665474 12.346331 38.477589Q11.892731 38.289703 11.448898 38.079784Q11.005064 37.869865 10.572065 37.638424Q10.139067 37.406982 9.7179451 37.154568Q9.2968235 36.902157 8.8885946 36.629387Q8.4803658 36.356617 8.0860128 36.064148Q7.6916609 35.771675 7.3121338 35.460209Q6.9326067 35.148739 6.56882 34.819019Q6.2050338 34.489304 5.8578639 34.142136Q5.510694 33.794964 5.1809769 33.431179Q4.8512602 33.06739 4.5397906 32.687866Q4.2283211 32.308338 3.9358487 31.913984Q3.6433768 31.51963 3.3706071 31.111401Q3.0978374 30.703171 2.845427 30.282051Q2.5930171 29.860931 2.3615744 29.427933Q2.1301317 28.994932 1.9202138 28.5511Q1.7102962 28.107265 1.5224091 27.653667Q1.334522 27.200068 1.1691184 26.737795Q1.0037149 26.275524 0.86119318 25.805693Q0.71867144 25.335861 0.59937489 24.859602Q0.48007828 24.383343 0.38429433 23.901806Q0.28851038 23.420265 0.21646976 22.934608Q0.14442916 22.448952 0.09630546 21.960344Q0.048181746 21.471735 0.024090873 20.981354Q0 20.490973 0 20Q0 19.509027 0.024090873 19.018646Q0.048181746 18.528265 0.09630546 18.039658Q0.14442916 17.551048 0.21646976 17.06539Q0.28851038 16.579731 0.38429433 16.098192Q0.48007828 15.616653 0.59937483 15.140394Q0.71867144 14.664137 0.86119318 14.194306Q1.0037149 13.724474 1.1691185 13.262202Q1.334522 12.79993 1.5224091 12.346331Q1.7102962 11.892731 1.9202138 11.448898Q2.1301317 11.005064 2.3615744 10.572065Q2.5930171 10.139067 2.8454275 9.7179451Q3.0978374 9.2968235 3.3706071 8.8885946Q3.6433768 8.4803658 3.9358487 8.0860128Q4.2283211 7.6916609 4.5397906 7.3121338Q4.8512602 6.9326067 5.1809769 6.56882Q5.510694 6.2050338 5.8578639 5.8578639Q6.2050338 5.510694 6.56882 5.1809769Q6.9326072 4.8512602 7.3121343 4.5397906Q7.6916609 4.2283211 8.0860138 3.9358487Q8.4803658 3.6433768 8.8885946 3.3706071Q9.2968235 3.0978374 9.7179451 2.845427Q10.139067 2.5930171 10.572065 2.3615744Q11.005064 2.1301317 11.448896 1.9202138Q11.892731 1.7102962 12.34633 1.5224091Q12.799929 1.334522 13.262201 1.1691184Q13.724474 1.0037149 14.194306 0.86119318Q14.664138 0.71867144 15.140396 0.59937489Q15.616655 0.48007828 16.098194 0.38429433Q16.579731 0.28851038 17.06539 0.21646976Q17.551048 0.14442916 18.039658 0.09630546Q18.528265 0.048181746 19.018646 0.024090873Q19.509027 0 20 0Q20.490973 0 20.981354 0.024090873Q21.471735 0.048181746 21.960344 0.09630546Q22.448952 0.14442916 22.934608 0.21646976Q23.420265 0.28851038 23.901806 0.38429433Q24.383343 0.48007828 24.859602 0.59937483Q25.335861 0.71867144 25.805693 0.86119318Q26.275524 1.0037149 26.737797 1.1691185Q27.200066 1.334522 27.653666 1.5224091Q28.107265 1.7102962 28.551098 1.9202138Q28.994932 2.1301317 29.427933 2.3615744Q29.860931 2.5930171 30.282051 2.8454275Q30.703171 3.0978374 31.111401 3.3706071Q31.51963 3.6433768 31.913982 3.9358487Q32.308334 4.2283211 32.687862 4.5397906Q33.06739 4.8512602 33.431175 5.1809769Q33.794964 5.510694 34.142136 5.8578639Q34.489304 6.2050338 34.819023 6.56882Q35.148743 6.9326072 35.460213 7.3121343Q35.771683 7.6916609 36.064152 8.0860138Q36.356621 8.4803658 36.629391 8.8885946Q36.902161 9.2968235 37.154572 9.7179451Q37.406982 10.139067 37.638424 10.572065Q37.869865 11.005064 38.079784 11.448896Q38.289703 11.892731 38.477589 12.34633Q38.665474 12.799929 38.830879 13.262201Q38.996284 13.724474 39.138805 14.194306Q39.281326 14.664138 39.400627 15.140396Q39.51992 15.616655 39.615707 16.098194Q39.711491 16.579731 39.783531 17.06539Q39.855576 17.551048 39.903698 18.039658Q39.95182 18.528265 39.975914 19.018646Q40 19.509027 40 20Z"/>
	<path fill="white" transform="translate(12.5 7.5)" d="M0 12.733672L7.6745844 9.2432938L7.6745844 0L0 12.733672" fill-rule="evenodd"/>
	<path fill="#C1CCF7" transform="translate(12.5 16.7433)" d="M0 3.4903786L7.6745844 8.0246029L7.6745844 0L0 3.4903786Z" fill-rule="evenodd"/>
	<path fill="#7E98EB" transform="translate(20.1746 16.7433)" d="M0 8.0246029L7.6716428 3.4903786L0 0L0 8.0246029Z" fill-rule="evenodd"/>
	<path fill="#C1CBF6" transform="translate(20.1746 7.5)" d="M0 9.2432938L7.6716428 12.733672L0 0L0 9.2432938" fill-rule="evenodd"/>
	<path fill="white" transform="translate(12.5 21.688)" d="M7.6745844 4.5338974L0 0L7.6745844 10.812003L7.6745844 4.5338974" fill-rule="evenodd"/>
	<path fill="#C1CBF6" transform="translate(20.1746 21.688)" d="M0 10.812003L7.6775255 0L0 4.5338974L0 10.812003Z" fill-rule="evenodd"/>
</svg>
