<?xml version="1.0" encoding="utf-8" ?>
<svg xmlns="http://www.w3.org/2000/svg" xmlns:xlink="http://www.w3.org/1999/xlink" width="40" height="41">
	<path fill="#8247E5" transform="translate(0.007864 0)" d="M19.988071 0L19.988071 0C31.036592 0 39.991875 8.9553413 39.991875 20.003935L39.991875 20.003935C39.991875 31.052528 31.036592 40 19.995939 40L19.995939 40C8.9474192 40 0 31.044659 0 20.003935L0 20.003935C-0.0078641353 8.9553413 8.9474192 0 19.988071 0Z"/>
	<path fill="white" transform="translate(6.75974 8.57564)" d="M19.791332 7.0686603C19.311304 6.7932324 18.697498 6.7932324 18.154514 7.0686603L14.330027 9.3350382L11.733151 10.775133L7.9794874 13.033642C7.4994593 13.30907 6.8856525 13.30907 6.3426695 13.033642L3.4074144 11.247295C2.927386 10.971867 2.5890052 10.421011 2.5890052 9.8072004L2.5890052 6.3761559C2.5890052 5.8253002 2.8644314 5.2823138 3.4074144 4.9360614L6.3426695 3.2205391C6.8226981 2.945111 7.4365048 2.945111 7.9794874 3.2205391L10.914742 5.0068855C11.394772 5.2823138 11.733151 5.8331695 11.733151 6.44698L11.733151 8.7133579L14.330027 7.2024393L14.330027 4.8731065C14.330027 4.3222508 14.054601 3.7792642 13.511618 3.433012L8.0503111 0.20657092C7.5702829 -0.068856977 6.9564762 -0.068856977 6.4134936 0.20657092L0.81840897 3.5038364C0.27542609 3.7792642 0 4.3301201 0 4.8731065L0 11.318119C0 11.868975 0.27542609 12.411962 0.81840897 12.758214L6.3505387 15.984654C6.8305674 16.260082 7.4443741 16.260082 7.9873571 15.984654L11.741021 13.789101L14.337895 12.278182L18.09156 10.082628C18.571589 9.8072004 19.185396 9.8072004 19.728378 10.082628L22.663633 11.798151C23.143661 12.073579 23.482042 12.624434 23.482042 13.238245L23.482042 16.669291C23.482042 17.220146 23.206615 17.763132 22.663633 18.109385L19.799202 19.824907C19.319174 20.100334 18.705366 20.100334 18.162384 19.824907L15.219259 18.109385C14.739231 17.833956 14.40085 17.2831 14.40085 16.669291L14.40085 14.473736L11.803976 15.984654L11.803976 18.251034C11.803976 18.801889 12.079402 19.344875 12.622385 19.691128L18.154514 22.917568C18.634542 23.192997 19.24835 23.192997 19.791332 22.917568L25.323463 19.691128C25.803492 19.415699 26.141872 18.864843 26.141872 18.251034L26.141872 11.735196C26.141872 11.18434 25.866446 10.641354 25.323463 10.295101L19.791332 7.0686603Z"/>
</svg>
