<?xml version="1.0" encoding="utf-8" ?>
<svg xmlns="http://www.w3.org/2000/svg" xmlns:xlink="http://www.w3.org/1999/xlink" width="40" height="41">
	<path fill="#FF060A" d="M20 40C31.049809 40 40 31.043583 40 20C40 8.9564171 31.049809 0 20 0C8.9501915 0 0 8.9564171 0 20C0 31.043583 8.9578543 40 20 40Z"/>
	<path fill="white" transform="translate(9.375 9.375)" d="M22.176741 7.1574082C21.069441 6.1269121 19.531527 4.5570164 18.285814 3.4460132L18.20892 3.3977087C18.085886 3.3010998 17.947474 3.2205923 17.801371 3.164237L17.801371 3.164237C14.787057 2.6006846 0.76126814 -0.031910069 0.49213293 0.00029292281C0.41523716 0.0083436705 0.33834139 0.040546663 0.27682477 0.080800407L0.20761858 0.13715564C0.12303323 0.22571386 0.05382704 0.33037359 0.015379154 0.45113483L0 0.4994393L0 0.76511401L0 0.80536777C1.5763633 5.2171779 7.8126101 19.660219 9.042943 23.057636C9.1198387 23.291107 9.2582512 23.725847 9.5196962 23.75L9.581213 23.75C9.7196255 23.75 10.319412 22.952976 10.319412 22.952976C10.319412 22.952976 21.030993 9.9268656 22.115223 8.5421371C22.253635 8.3730707 22.376669 8.1879034 22.484324 7.9946856C22.515081 7.8417215 22.499702 7.6887574 22.445875 7.5438437C22.392048 7.3989305 22.292084 7.2620678 22.176741 7.1574082L22.176741 7.1574082ZM13.056902 8.6789999L17.62451 4.8790464L20.308172 7.3586769L13.056902 8.6789999ZM11.28061 8.4294262L3.4141722 1.9566247L16.148111 4.3154941L11.28061 8.4294262ZM11.98805 10.120084L20.039038 8.8158617L10.834614 19.950047L11.98805 10.120084ZM2.3453209 2.6087353L10.626996 9.6531401L9.4274216 19.958097L2.3453209 2.6087353Z"/>
</svg>
