<?xml version="1.0" encoding="utf-8" ?>
<svg xmlns="http://www.w3.org/2000/svg" xmlns:xlink="http://www.w3.org/1999/xlink" width="30" height="31">
	<path d="M30 15Q30 15.368229 29.98193 15.736015Q29.963863 16.103802 29.927771 16.470257Q29.891678 16.836714 29.837646 17.200958Q29.783615 17.565201 29.711777 17.926353Q29.639938 18.287506 29.550465 18.644701Q29.460995 19.001896 29.354103 19.354269Q29.247211 19.706642 29.123158 20.053345Q28.999104 20.400049 28.858189 20.740248Q28.717274 21.080448 28.559835 21.413324Q28.402399 21.746201 28.228817 22.07095Q28.055233 22.395699 27.865925 22.711538Q27.676617 23.027378 27.47204 23.333549Q27.267464 23.639721 27.048109 23.935486Q26.828756 24.231251 26.595156 24.515896Q26.361553 24.800541 26.114265 25.07338Q25.866978 25.34622 25.6066 25.606598Q25.346222 25.866974 25.073381 26.114262Q24.800541 26.361549 24.515896 26.595154Q24.231251 26.828754 23.935486 27.048109Q23.639721 27.267464 23.333549 27.47204Q23.027378 27.676617 22.711538 27.865925Q22.395699 28.055233 22.07095 28.228817Q21.746201 28.402399 21.413324 28.559837Q21.080448 28.717274 20.74025 28.858189Q20.400051 28.999104 20.053345 29.123156Q19.706642 29.24721 19.354269 29.354101Q19.001896 29.460993 18.644701 29.550467Q18.287506 29.639938 17.926353 29.711777Q17.565201 29.783615 17.200958 29.837646Q16.836716 29.891678 16.470259 29.927771Q16.103802 29.963863 15.736015 29.98193Q15.368229 30 15 30Q14.631771 30 14.263985 29.98193Q13.896199 29.963863 13.529743 29.927771Q13.163286 29.891678 12.799043 29.837646Q12.434798 29.783615 12.073645 29.711777Q11.71249 29.639938 11.355297 29.550465Q10.998103 29.460995 10.64573 29.354103Q10.293356 29.247211 9.9466515 29.123158Q9.599947 28.999104 9.2597475 28.858189Q8.919548 28.717274 8.5866728 28.559835Q8.2537975 28.402399 7.9290481 28.228817Q7.6042986 28.055233 7.2884579 27.865925Q6.9726171 27.676617 6.6664457 27.47204Q6.3602743 27.267464 6.0645099 27.048109Q5.7687454 26.828756 5.4841008 26.595156Q5.1994553 26.361553 4.9266152 26.114265Q4.6537752 25.866978 4.3933978 25.6066Q4.1330204 25.346222 3.8857327 25.073381Q3.6384449 24.800541 3.4048429 24.515896Q3.1712403 24.231251 2.9518862 23.935486Q2.7325325 23.639721 2.5279553 23.333549Q2.3233781 23.027378 2.1340704 22.711538Q1.9447627 22.395699 1.7711809 22.07095Q1.5975988 21.746201 1.4401605 21.413324Q1.2827221 21.080448 1.1418068 20.74025Q1.0008916 20.400051 0.87683886 20.053345Q0.75278616 19.706642 0.64589489 19.354269Q0.53900355 19.001896 0.44953114 18.644701Q0.3600587 18.287506 0.28822073 17.926353Q0.21638277 17.565201 0.16235231 17.200958Q0.10832187 16.836716 0.072229087 16.470259Q0.036136307 16.103802 0.018068153 15.736015Q0 15.368229 0 15Q0 14.631771 0.018068153 14.263985Q0.036136307 13.896199 0.072229087 13.529743Q0.10832187 13.163286 0.16235232 12.799043Q0.21638277 12.434798 0.28822073 12.073645Q0.3600587 11.71249 0.44953111 11.355297Q0.53900355 10.998103 0.64589489 10.64573Q0.75278616 10.293356 0.87683886 9.9466515Q1.0008916 9.599947 1.1418068 9.2597475Q1.2827221 8.919548 1.4401604 8.5866728Q1.5975988 8.2537975 1.7711809 7.9290481Q1.9447629 7.6042986 2.1340706 7.2884579Q2.3233781 6.9726171 2.5279555 6.6664457Q2.7325325 6.3602743 2.9518867 6.0645099Q3.1712406 5.7687454 3.4048429 5.4841008Q3.6384449 5.1994553 3.8857327 4.9266152Q4.1330204 4.6537752 4.3933978 4.3933978Q4.6537752 4.1330204 4.9266152 3.8857327Q5.1994553 3.6384449 5.4841003 3.4048429Q5.7687454 3.1712403 6.0645099 2.9518862Q6.3602743 2.7325325 6.6664457 2.5279553Q6.9726171 2.3233781 7.2884579 2.1340704Q7.6042986 1.9447627 7.9290485 1.7711809Q8.2537975 1.5975988 8.5866728 1.4401605Q8.919548 1.2827221 9.2597475 1.1418068Q9.599947 1.0008916 9.9466515 0.87683886Q10.293356 0.75278616 10.645729 0.64589489Q10.998102 0.53900355 11.355297 0.44953114Q11.71249 0.3600587 12.073645 0.28822073Q12.434798 0.21638277 12.799042 0.16235231Q13.163286 0.10832187 13.529743 0.072229087Q13.896199 0.036136307 14.263985 0.018068153Q14.631771 0 15 0Q15.368229 0 15.736015 0.018068153Q16.103802 0.036136307 16.470257 0.072229087Q16.836714 0.10832187 17.200958 0.16235232Q17.565201 0.21638277 17.926353 0.28822073Q18.287506 0.3600587 18.644701 0.44953111Q19.001896 0.53900355 19.354269 0.64589489Q19.706642 0.75278616 20.053345 0.87683886Q20.400049 1.0008916 20.740248 1.1418068Q21.080448 1.2827221 21.413324 1.4401604Q21.746201 1.5975988 22.07095 1.7711809Q22.395699 1.9447629 22.711538 2.1340706Q23.027378 2.3233781 23.333549 2.5279555Q23.639721 2.7325325 23.935486 2.9518867Q24.231251 3.1712406 24.515896 3.4048429Q24.800541 3.6384449 25.07338 3.8857327Q25.34622 4.1330204 25.606598 4.3933978Q25.866974 4.6537752 26.114262 4.9266152Q26.361549 5.1994553 26.595154 5.4841003Q26.828754 5.7687454 27.048109 6.0645099Q27.267464 6.3602743 27.47204 6.6664457Q27.676617 6.9726171 27.865925 7.2884579Q28.055233 7.6042986 28.228817 7.9290485Q28.402399 8.2537975 28.559837 8.5866728Q28.717274 8.919548 28.858189 9.2597475Q28.999104 9.599947 29.123156 9.9466515Q29.24721 10.293356 29.354101 10.645729Q29.460993 10.998102 29.550467 11.355297Q29.639938 11.71249 29.711777 12.073645Q29.783615 12.434798 29.837646 12.799042Q29.891678 13.163286 29.927771 13.529743Q29.963863 13.896199 29.98193 14.263985Q30 14.631771 30 15Z"/>
	<path fill="white" transform="translate(8.25 8.25)" d="M13.5 12.825C13.5 13.197792 13.197792 13.5 12.825 13.5L0.67500001 13.5C0.3022078 13.5 0 13.197792 0 12.825C0 12.452208 0.3022078 12.15 0.67500001 12.15L12.825 12.15C13.197792 12.15 13.5 12.452208 13.5 12.825ZM6.8165975 0.0033628922C6.8266687 0.0042306487 6.8366442 0.0054343129 6.8462901 0.0076476308C6.858264 0.0085805729 6.8701119 0.010602741 6.8818846 0.013079988C6.8932862 0.015137134 6.9045215 0.017667783 6.9153376 0.021247754C6.9257035 0.023066381 6.935873 0.025882006 6.9459395 0.029116357C6.9569354 0.032209732 6.9677267 0.035783675 6.9780445 0.040345933C6.9883614 0.043217752 6.9984031 0.047090851 7.008296 0.051418222C7.0183516 0.05535382 7.0281901 0.059715476 7.0375156 0.064979777C7.0480375 0.069049478 7.0581956 0.074153207 7.0681586 0.079741061C7.0775633 0.084572032 7.0867457 0.089772262 7.0953617 0.095816344C7.1055412 0.10093289 7.1152749 0.10708791 7.1247916 0.11369549C7.1348677 0.12026805 7.1446753 0.12721585 7.1538019 0.1350233C7.1621881 0.14027908 7.1700926 0.14648141 7.1778274 0.15298918C7.1950855 0.16703476 7.2115769 0.18198295 7.2272968 0.19770291L11.952297 4.9227028C12.215901 5.186307 12.215901 5.6136932 11.952297 5.8772969C11.688693 6.1409011 11.261307 6.1409011 10.997703 5.8772969L7.4250002 2.304594L7.4250002 10.125C7.4250002 10.497792 7.1227922 10.8 6.75 10.8C6.3772078 10.8 6.0749998 10.497792 6.0749998 10.125L6.0749998 2.304594L2.5022972 5.8772969C2.2386932 6.1409011 1.8113068 6.1409011 1.5477029 5.8772969C1.284099 5.6136932 1.284099 5.186307 1.5477029 4.9227028L6.2727032 0.19770291C6.2884231 0.18198292 6.3049145 0.1670347 6.3221726 0.15298918C6.3299074 0.14648141 6.3378119 0.14027908 6.3461981 0.1350233C6.3553247 0.12721586 6.3651323 0.12026811 6.3752084 0.11369549C6.3847251 0.10708791 6.3944588 0.10093289 6.4046383 0.095816344C6.4132543 0.089772247 6.4224367 0.084571987 6.4318414 0.079741061C6.4418044 0.074153207 6.4519625 0.069049478 6.4624844 0.064979777C6.4718099 0.059715442 6.4816484 0.055353802 6.491704 0.051418222C6.5015969 0.047090851 6.5116386 0.043217752 6.5219555 0.040345933C6.5322733 0.035783675 6.5430646 0.032209732 6.5540605 0.029116357C6.564127 0.025882006 6.5742965 0.023066381 6.5846624 0.021247754C6.5954785 0.017667776 6.6067138 0.015137144 6.6181154 0.013079988C6.6298881 0.010602741 6.641736 0.0085805729 6.6537099 0.0076476308C6.6633558 0.0054343189 6.6733308 0.004230659 6.6834025 0.0033628922L6.75 0C6.7722311 0 6.7944627 0.0010914268 6.8165975 0.0033628922Z"/>
</svg>
