<?xml version="1.0" encoding="utf-8" ?>
<svg xmlns="http://www.w3.org/2000/svg" xmlns:xlink="http://www.w3.org/1999/xlink" width="24" height="25">
	<path fill="#CED0DD" transform="translate(2 2.00087)" d="M15.287256 0.39630419C15.971496 0.74490547 16.527763 1.3011587 16.876358 1.9853119C17.232115 2.6834216 17.272728 3.1804218 17.272728 5.2723122L17.272728 8.1965637C17.875032 8.2233133 18.150412 8.294733 18.510841 8.4783878C19.024036 8.7398052 19.441324 9.1570616 19.702715 9.6701193C19.971773 10.198076 20 10.543507 20 11.999055L20 14.466407C20 15.677552 19.980381 15.96516 19.792414 16.419107C19.515579 17.087276 18.984573 17.618206 18.316507 17.894817C18.006783 18.023129 17.774458 18.073025 17.272728 18.091715L17.272728 19.089407C17.272728 19.823494 16.447483 20.254812 15.844699 19.835772L13.866106 18.460302C13.586457 18.265871 13.51459 18.218954 13.453699 18.189165C13.447506 18.186174 13.447506 18.186174 13.44167 18.183495C13.374323 18.153013 13.303679 18.130871 13.231408 18.11755C13.16547 18.105412 13.08364 18.102484 12.724455 18.102484L11.090909 18.102484C9.6352463 18.102484 9.2897882 18.074261 8.7618856 17.805271C8.2486916 17.543852 7.8314023 17.126596 7.5699744 16.613462C7.3468208 16.175482 7.2893519 15.863128 7.2763872 14.936554L6.0329232 16.195463C5.2870107 16.950619 5.1953607 17.028345 4.7089276 17.06871C4.2726235 17.10499 3.845459 16.929577 3.5607781 16.597393C3.242938 16.226784 3.2323272 16.106825 3.2323272 15.045633L3.2323272 13.627654C3.2323272 13.635597 3.2076852 13.611287 3.1093352 13.596876C1.5196698 13.364044 0.27124277 12.115744 0.038405292 10.526247C0.0038996271 10.290781 0 10.137111 0 9.4941616L0 5.2723122C0 3.1804299 0.040609296 2.6834342 0.39633834 1.9853364C0.74496901 1.3011594 1.3012618 0.74491036 1.9854882 0.39630947C2.6836455 0.0406061 3.1806803 0 5.2727275 0L12 0C14.092013 0 14.589031 0.040605169 15.287256 0.39630419ZM11.090909 9.9992132C10.000845 9.9992132 9.7398891 10.020533 9.5872049 10.098331C9.4162178 10.185432 9.2771425 10.324495 9.1899872 10.495566C9.1122313 10.648142 9.090909 10.909077 9.090909 11.999055L9.090909 14.284603C9.090909 15.374608 9.1122255 15.63547 9.1900358 15.788188C9.2771425 15.959163 9.4162178 16.098227 9.5873013 16.185375C9.7398891 16.263124 10.000845 16.284445 11.090909 16.284445L12.724455 16.284445C13.212088 16.284445 13.340485 16.28904 13.560793 16.329594C13.778206 16.369665 13.989934 16.436033 14.191567 16.527292C14.222344 16.541416 14.222344 16.541416 14.252749 16.556107C14.432267 16.64393 14.534222 16.710487 14.904028 16.967604L15.454545 17.350309L15.454545 17.193464C15.454545 16.691427 15.861559 16.284445 16.363636 16.284445C17.270224 16.284445 17.489645 16.26947 17.620747 16.215157C17.843386 16.122974 18.020403 15.945983 18.112602 15.72345C18.166849 15.592442 18.181818 15.373004 18.181818 14.466407L18.181818 11.999055C18.181818 10.909077 18.160496 10.648142 18.082691 10.49547C17.995584 10.324495 17.85651 10.185432 17.685425 10.098283C17.532839 10.020533 17.271883 9.9992132 16.181818 9.9992132L11.090909 9.9992132ZM5.2727275 1.8180387C3.5462286 1.8180387 3.1337068 1.8517404 2.8109255 2.0161939C2.468811 2.190495 2.1906674 2.4686167 2.0163503 2.8107088C1.8518862 3.13346 1.8181819 3.5459497 1.8181819 5.2723122L1.8181819 9.4941616C1.8181819 10.02412 1.8214829 10.154204 1.837384 10.262712C1.953806 11.057484 2.5780001 11.681615 3.3728921 11.79804C4.3096981 11.935299 5.050509 12.666142 5.050509 13.627654L5.050509 14.602864L7.2727275 12.353045L7.2727275 11.999055C7.2727275 10.543507 7.3009534 10.198076 7.5699639 9.6702156C7.8314023 9.1570616 8.2486916 8.7398052 8.7617893 8.4784365C9.2897882 8.2093983 9.6352463 8.1811743 11.090909 8.1811743L15.454545 8.1811743L15.454545 5.2723122C15.454545 3.5459578 15.420839 3.1334727 15.256345 2.8106813C15.082039 2.4685864 14.803928 2.190484 14.461861 2.0162098C14.139006 1.8517369 13.726532 1.8180387 12 1.8180387L5.2727275 1.8180387Z"/>
</svg>
