<?xml version="1.0" encoding="utf-8" ?>
<svg xmlns="http://www.w3.org/2000/svg" xmlns:xlink="http://www.w3.org/1999/xlink" width="30" height="31">
	<path d="M30 15Q30 15.368229 29.98193 15.736015Q29.963863 16.103802 29.927771 16.470257Q29.891678 16.836714 29.837646 17.200958Q29.783615 17.565201 29.711777 17.926353Q29.639938 18.287506 29.550465 18.644701Q29.460995 19.001896 29.354103 19.354269Q29.247211 19.706642 29.123158 20.053345Q28.999104 20.400049 28.858189 20.740248Q28.717274 21.080448 28.559835 21.413324Q28.402399 21.746201 28.228817 22.07095Q28.055233 22.395699 27.865925 22.711538Q27.676617 23.027378 27.47204 23.333549Q27.267464 23.639721 27.048109 23.935486Q26.828756 24.231251 26.595156 24.515896Q26.361553 24.800541 26.114265 25.07338Q25.866978 25.34622 25.6066 25.606598Q25.346222 25.866974 25.073381 26.114262Q24.800541 26.361549 24.515896 26.595154Q24.231251 26.828754 23.935486 27.048109Q23.639721 27.267464 23.333549 27.47204Q23.027378 27.676617 22.711538 27.865925Q22.395699 28.055233 22.07095 28.228817Q21.746201 28.402399 21.413324 28.559837Q21.080448 28.717274 20.74025 28.858189Q20.400051 28.999104 20.053345 29.123156Q19.706642 29.24721 19.354269 29.354101Q19.001896 29.460993 18.644701 29.550467Q18.287506 29.639938 17.926353 29.711777Q17.565201 29.783615 17.200958 29.837646Q16.836716 29.891678 16.470259 29.927771Q16.103802 29.963863 15.736015 29.98193Q15.368229 30 15 30Q14.631771 30 14.263985 29.98193Q13.896199 29.963863 13.529743 29.927771Q13.163286 29.891678 12.799043 29.837646Q12.434798 29.783615 12.073645 29.711777Q11.71249 29.639938 11.355297 29.550465Q10.998103 29.460995 10.64573 29.354103Q10.293356 29.247211 9.9466515 29.123158Q9.599947 28.999104 9.2597475 28.858189Q8.919548 28.717274 8.5866728 28.559835Q8.2537975 28.402399 7.9290481 28.228817Q7.6042986 28.055233 7.2884579 27.865925Q6.9726171 27.676617 6.6664457 27.47204Q6.3602743 27.267464 6.0645099 27.048109Q5.7687454 26.828756 5.4841008 26.595156Q5.1994553 26.361553 4.9266152 26.114265Q4.6537752 25.866978 4.3933978 25.6066Q4.1330204 25.346222 3.8857327 25.073381Q3.6384449 24.800541 3.4048429 24.515896Q3.1712403 24.231251 2.9518862 23.935486Q2.7325325 23.639721 2.5279553 23.333549Q2.3233781 23.027378 2.1340704 22.711538Q1.9447627 22.395699 1.7711809 22.07095Q1.5975988 21.746201 1.4401605 21.413324Q1.2827221 21.080448 1.1418068 20.74025Q1.0008916 20.400051 0.87683886 20.053345Q0.75278616 19.706642 0.64589489 19.354269Q0.53900355 19.001896 0.44953114 18.644701Q0.3600587 18.287506 0.28822073 17.926353Q0.21638277 17.565201 0.16235231 17.200958Q0.10832187 16.836716 0.072229087 16.470259Q0.036136307 16.103802 0.018068153 15.736015Q0 15.368229 0 15Q0 14.631771 0.018068153 14.263985Q0.036136307 13.896199 0.072229087 13.529743Q0.10832187 13.163286 0.16235232 12.799043Q0.21638277 12.434798 0.28822073 12.073645Q0.3600587 11.71249 0.44953111 11.355297Q0.53900355 10.998103 0.64589489 10.64573Q0.75278616 10.293356 0.87683886 9.9466515Q1.0008916 9.599947 1.1418068 9.2597475Q1.2827221 8.919548 1.4401604 8.5866728Q1.5975988 8.2537975 1.7711809 7.9290481Q1.9447629 7.6042986 2.1340706 7.2884579Q2.3233781 6.9726171 2.5279555 6.6664457Q2.7325325 6.3602743 2.9518867 6.0645099Q3.1712406 5.7687454 3.4048429 5.4841008Q3.6384449 5.1994553 3.8857327 4.9266152Q4.1330204 4.6537752 4.3933978 4.3933978Q4.6537752 4.1330204 4.9266152 3.8857327Q5.1994553 3.6384449 5.4841003 3.4048429Q5.7687454 3.1712403 6.0645099 2.9518862Q6.3602743 2.7325325 6.6664457 2.5279553Q6.9726171 2.3233781 7.2884579 2.1340704Q7.6042986 1.9447627 7.9290485 1.7711809Q8.2537975 1.5975988 8.5866728 1.4401605Q8.919548 1.2827221 9.2597475 1.1418068Q9.599947 1.0008916 9.9466515 0.87683886Q10.293356 0.75278616 10.645729 0.64589489Q10.998102 0.53900355 11.355297 0.44953114Q11.71249 0.3600587 12.073645 0.28822073Q12.434798 0.21638277 12.799042 0.16235231Q13.163286 0.10832187 13.529743 0.072229087Q13.896199 0.036136307 14.263985 0.018068153Q14.631771 0 15 0Q15.368229 0 15.736015 0.018068153Q16.103802 0.036136307 16.470257 0.072229087Q16.836714 0.10832187 17.200958 0.16235232Q17.565201 0.21638277 17.926353 0.28822073Q18.287506 0.3600587 18.644701 0.44953111Q19.001896 0.53900355 19.354269 0.64589489Q19.706642 0.75278616 20.053345 0.87683886Q20.400049 1.0008916 20.740248 1.1418068Q21.080448 1.2827221 21.413324 1.4401604Q21.746201 1.5975988 22.07095 1.7711809Q22.395699 1.9447629 22.711538 2.1340706Q23.027378 2.3233781 23.333549 2.5279555Q23.639721 2.7325325 23.935486 2.9518867Q24.231251 3.1712406 24.515896 3.4048429Q24.800541 3.6384449 25.07338 3.8857327Q25.34622 4.1330204 25.606598 4.3933978Q25.866974 4.6537752 26.114262 4.9266152Q26.361549 5.1994553 26.595154 5.4841003Q26.828754 5.7687454 27.048109 6.0645099Q27.267464 6.3602743 27.47204 6.6664457Q27.676617 6.9726171 27.865925 7.2884579Q28.055233 7.6042986 28.228817 7.9290485Q28.402399 8.2537975 28.559837 8.5866728Q28.717274 8.919548 28.858189 9.2597475Q28.999104 9.599947 29.123156 9.9466515Q29.24721 10.293356 29.354101 10.645729Q29.460993 10.998102 29.550467 11.355297Q29.639938 11.71249 29.711777 12.073645Q29.783615 12.434798 29.837646 12.799042Q29.891678 13.163286 29.927771 13.529743Q29.963863 13.896199 29.98193 14.263985Q30 14.631771 30 15Z"/>
	<path fill="white" transform="translate(7.5 7.5)" d="M15 10.227273C15 12.019274 13.617283 13.488378 11.859752 13.622787L12.073028 13.836063C12.339293 14.10233 12.339293 14.534034 12.073028 14.8003C11.806761 15.066566 11.375057 15.066566 11.10879 14.8003L9.7451544 13.436664C9.7292757 13.420785 9.7141762 13.404127 9.6999893 13.386694C9.6934156 13.378881 9.68715 13.370896 9.6818409 13.362426C9.673955 13.353207 9.6669378 13.343301 9.6602983 13.333123C9.6536245 13.32351 9.6474066 13.313678 9.6422386 13.303395C9.6361332 13.294692 9.6308804 13.285418 9.6260014 13.275918C9.6203566 13.265854 9.615202 13.255593 9.6110907 13.244966C9.605773 13.235546 9.601368 13.225608 9.5973921 13.21545C9.5930214 13.205458 9.5891085 13.195314 9.5862083 13.184894C9.5816002 13.174472 9.5779896 13.163571 9.5748653 13.152464C9.5715981 13.142296 9.5687542 13.132024 9.5669165 13.121552C9.5633011 13.110627 9.5607443 13.099278 9.5586662 13.087762C9.5561647 13.075871 9.554122 13.063904 9.5531797 13.051808C9.5509434 13.042065 9.5497284 13.031989 9.548851 13.021815C9.5443525 12.97709 9.5443525 12.932001 9.548851 12.887275C9.5497284 12.877102 9.5509434 12.867026 9.5531797 12.857283C9.554122 12.845187 9.5561647 12.83322 9.5586662 12.821329C9.5607443 12.809812 9.5633011 12.798464 9.5669165 12.787539C9.5687542 12.777067 9.5715981 12.766795 9.5748653 12.756627C9.5779896 12.74552 9.5816002 12.734619 9.5862083 12.724197C9.5891085 12.713777 9.5930214 12.703633 9.5973921 12.693641C9.601368 12.683483 9.605773 12.673545 9.6110907 12.664125C9.615202 12.653498 9.6203566 12.643236 9.6260014 12.633173C9.6308804 12.623673 9.6361332 12.614399 9.6422386 12.605696C9.6474066 12.595413 9.6536245 12.585581 9.6602983 12.575968C9.6669378 12.56579 9.673955 12.555884 9.6818409 12.546665C9.68715 12.538195 9.6934156 12.53021 9.6999893 12.522396C9.7141762 12.504964 9.7292757 12.488306 9.7451544 12.472427L11.10879 11.10879C11.375057 10.842525 11.806761 10.842525 12.073028 11.10879C12.339293 11.375057 12.339293 11.806761 12.073028 12.073028L11.898991 12.247065C12.882895 12.100629 13.636364 11.251917 13.636364 10.227273C13.636364 9.8507147 13.941624 9.545455 14.318182 9.545455C14.694739 9.545455 15 9.8507147 15 10.227273ZM9.545455 10.227273C9.545455 12.863172 7.4086261 15 4.7727275 15C2.1368239 15 0 12.863173 0 10.227273C0 7.591372 2.1368239 5.4545455 4.7727275 5.4545455C7.4086261 5.4545455 9.545455 7.5913739 9.545455 10.227273ZM1.3636364 10.227273C1.3636364 12.110059 2.8899398 13.636364 4.7727275 13.636364C6.6555104 13.636364 8.181818 12.110056 8.181818 10.227273C8.181818 8.3444901 6.6555104 6.818182 4.7727275 6.818182C2.8899398 6.818182 1.3636364 8.3444872 1.3636364 10.227273ZM15 4.7727275C15 6.96313 13.512228 8.856535 11.420029 9.3950682C11.055357 9.4889345 10.68364 9.2694035 10.589773 8.9047327C10.495907 8.540062 10.715437 8.1683435 11.080108 8.0744772C12.57329 7.6901326 13.636364 6.3372169 13.636364 4.7727275C13.636364 2.8899398 12.110059 1.3636364 10.227273 1.3636364C8.6627502 1.3636364 7.3098779 2.4267156 6.9255228 3.9199576C6.8316579 4.2846289 6.4599409 4.5041609 6.0952697 4.410296C5.7305984 4.3164306 5.5110664 3.9447136 5.6049314 3.5800424C6.1434698 1.4877881 8.0368252 0 10.227273 0C12.863173 0 15 2.1368239 15 4.7727275ZM3.8912091 0.19969992L5.2548456 1.5633363C5.2707243 1.579215 5.2858233 1.5958732 5.3000112 1.6133056C5.3065848 1.6211189 5.31285 1.6291035 5.3181586 1.6375742C5.326045 1.6467931 5.3330626 1.6566995 5.3397017 1.6668769C5.3463759 1.6764901 5.3525934 1.6863225 5.3577619 1.696605C5.3638668 1.7053078 5.3691192 1.7145824 5.3739991 1.7240824C5.379643 1.7341456 5.3847985 1.7444063 5.3889093 1.7550346C5.3942266 1.7644541 5.3986325 1.7743924 5.4026079 1.7845494C5.4069791 1.7945426 5.4108911 1.8046855 5.4137921 1.8151065C5.4184003 1.8255284 5.4220104 1.836429 5.4251351 1.8475357C5.4284019 1.8577038 5.4312463 1.8679764 5.4330831 1.8784475C5.4366994 1.8893725 5.4392552 1.9007211 5.4413333 1.9122379C5.4438357 1.924129 5.445878 1.9360963 5.4468207 1.9481914C5.4490561 1.9579351 5.4502721 1.9680111 5.4511485 1.9781842C5.4556479 2.0229104 5.4556479 2.0679986 5.4511485 2.1127248C5.4502721 2.1228979 5.4490561 2.1329739 5.4468207 2.1427176C5.445878 2.1548128 5.4438357 2.1667802 5.4413333 2.1786711C5.4392552 2.1901879 5.4366994 2.2015367 5.4330831 2.2124617C5.4312463 2.2229326 5.4284019 2.2332053 5.4251351 2.2433734C5.4220104 2.2544801 5.4184003 2.2653809 5.4137921 2.2758026C5.4108911 2.2862236 5.4069791 2.2963665 5.4026079 2.3063598C5.3986325 2.3165166 5.3942266 2.3264549 5.3889093 2.3358746C5.3847985 2.3465028 5.379643 2.3567636 5.3739991 2.3668268C5.3691192 2.3763266 5.3638668 2.3856013 5.3577619 2.3943043C5.3525934 2.4045866 5.3463759 2.4144189 5.3397017 2.4240322C5.3330626 2.4342096 5.326045 2.4441159 5.3181586 2.4533348C5.31285 2.4618056 5.3065848 2.4697902 5.3000112 2.4776034C5.2858233 2.4950359 5.2707243 2.5116942 5.2548456 2.5275729L3.8912091 3.8912091C3.6249425 4.1574759 3.1932392 4.1574759 2.9269726 3.8912091C2.660706 3.6249425 2.660706 3.1932392 2.9269726 2.9269726L3.1010115 2.7529337C2.1170878 2.8993614 1.3636364 3.7480547 1.3636364 4.7727275C1.3636364 5.1492848 1.058376 5.4545455 0.68181819 5.4545455C0.30526039 5.4545455 0 5.1492848 0 4.7727275C0 2.9806993 1.3826945 1.5116185 3.1402481 1.3772118L2.9269726 1.1639365C2.660706 0.89766985 2.660706 0.46596649 2.9269726 0.19969992C3.1932392 -0.066566639 3.6249425 -0.066566639 3.8912091 0.19969992Z"/>
</svg>
