<?xml version="1.0" encoding="UTF-8"?>
<svg width="40px" height="40px" viewBox="0 0 40 40" version="1.1" xmlns="http://www.w3.org/2000/svg" xmlns:xlink="http://www.w3.org/1999/xlink">
    <title>Logo / Transaction / Deposit@2x</title>
    <g id="Apps-V2" stroke="none" stroke-width="1" fill="none" fill-rule="evenodd">
        <g id="APPS" transform="translate(-260, -104)">
            <g id="Stack" transform="translate(17, 80)">
                <g id="Button-Copy-7" transform="translate(178, 0)">
                    <g id="Stack" transform="translate(24, 24)" fill-rule="nonzero">
                        <g id="Logo-/-Transaction-/-Deposit" transform="translate(41, 0)">
                            <circle id="Combined-Shape" fill="#061A8E" cx="20" cy="20" r="20"></circle>
                            <g id="Graphic" transform="translate(8, 8)" fill="#FFFFFF">
                                <path d="M10.4272369,3.49047177 C11.0494508,3.80434406 11.5870231,4.25422397 12,4.80342184 C12.4129736,4.25422902 12.9505395,3.80434728 13.5727592,3.4904554 C14.4411081,3.05246505 15.0897459,3 17.8181818,3 L18.1818182,3 C19.6374752,3 19.9829292,3.02794215 20.51091,3.29428993 C21.024099,3.5531655 21.4413596,3.96624995 21.7027219,4.47420449 C21.9717743,4.99693367 22,5.33892417 22,6.78 L22,14.52 C22,15.9611065 21.971774,16.3031093 21.7027632,16.8257332 C21.4413248,17.3337952 21.0240355,17.7469115 20.5109381,18.0056869 C19.9829387,18.2720563 19.6374813,18.3 18.1818182,18.3 L16.932,18.3 C15.615312,18.3 15.3011872,18.3174669 14.9717784,18.4165121 C14.6286764,18.5196554 14.3095462,18.6887348 14.0326246,18.9140905 C13.9653868,18.968805 13.9004226,19.0300693 13.8321196,19.1035911 C13.6221853,19.3295658 13.441997,19.5811776 12.8473318,20.4642553 L12.7612332,20.5920692 C12.7595167,20.5950196 12.7576138,20.597872 12.7554437,20.6005728 C12.7501829,20.6085953 12.7446791,20.616447 12.7383665,20.6236741 C12.7276553,20.6402679 12.7154621,20.6560018 12.7024576,20.6712141 C12.7021567,20.6716937 12.7017967,20.6721262 12.7014328,20.6725553 C12.6955542,20.6797067 12.6895517,20.6867099 12.68286,20.6928518 C12.6708614,20.7079939 12.6574395,20.7221784 12.6433244,20.7358514 C12.628463,20.7508651 12.6141352,20.7641528 12.598841,20.7760307 C12.5926362,20.7826562 12.5855624,20.7885987 12.5783387,20.7944185 C12.5779052,20.7947788 12.5774683,20.7951351 12.5769839,20.795433 C12.561618,20.8083075 12.5457251,20.8203788 12.528963,20.8309833 C12.5216633,20.8372325 12.5137324,20.8426812 12.5056293,20.8478892 C12.4917682,20.8574078 12.4775356,20.8662688 12.4626116,20.8737618 C12.4519338,20.8811933 12.4405376,20.8875619 12.4288772,20.8934968 C12.4174174,20.8998095 12.4057418,20.9056626 12.3935735,20.9103335 C12.378998,20.9184675 12.3636546,20.9252739 12.3479654,20.9314091 C12.3467539,20.9320594 12.3454868,20.9325745 12.3442013,20.9330426 C12.3327833,20.9378236 12.3212713,20.9422274 12.3094834,20.9453529 C12.2949544,20.9517194 12.2797653,20.9567266 12.2642932,20.961076 C12.2468876,20.9665697 12.2316917,20.9706733 12.2162842,20.9732969 C12.2041981,20.9772992 12.1916165,20.9800653 12.1788717,20.9823712 C12.1781904,20.9825421 12.1774994,20.9826786 12.1767954,20.9827518 C12.1575925,20.986818 12.1382802,20.9899558 12.1188599,20.9914385 C12.1101427,20.9935067 12.101089,20.9945441 12.0919829,20.9954017 C12.0910342,20.9955024 12.0900868,20.9955968 12.0891279,20.9955635 C12.0720909,20.9974891 12.0550221,20.998656 12.037961,20.9982978 C12.0257895,20.9997918 12.0135235,21 12.0012432,21 C11.9864765,21 11.9742105,20.9997918 11.962039,20.9982978 C11.9449779,20.998656 11.9279091,20.9974891 11.9108721,20.9955635 C11.9099132,20.9955968 11.9089658,20.9955024 11.9080171,20.9954017 C11.898911,20.9945441 11.8898573,20.9935067 11.8811401,20.9914385 C11.8617198,20.9899558 11.8424075,20.986818 11.8232046,20.9827518 C11.8225006,20.9826786 11.8218096,20.9825421 11.8211283,20.9823712 C11.8083835,20.9800653 11.7958019,20.9772992 11.7837158,20.9732969 C11.7683083,20.9706733 11.7531124,20.9665697 11.7380379,20.9618088 C11.7202347,20.9567266 11.7050456,20.9517194 11.6905166,20.9453529 C11.6787287,20.9422274 11.6672167,20.9378236 11.6557987,20.9330426 C11.6545132,20.9325745 11.6532461,20.9320594 11.6520346,20.9314091 C11.6363454,20.9252739 11.621002,20.9184675 11.6064265,20.9103335 C11.5942582,20.9056626 11.5825826,20.8998095 11.5711228,20.8934968 C11.5594624,20.8875619 11.5480662,20.8811933 11.5373884,20.8737618 C11.5224644,20.8662688 11.5082318,20.8574078 11.4943707,20.8478892 C11.4862676,20.8426812 11.4783367,20.8372325 11.471037,20.8309833 C11.4542749,20.8203788 11.438382,20.8083075 11.4230161,20.795433 C11.4225317,20.7951351 11.4220948,20.7947788 11.4216613,20.7944185 C11.4144376,20.7885987 11.4073638,20.7826562 11.401159,20.7760307 C11.3858648,20.7641528 11.371537,20.7508651 11.357726,20.7368913 C11.3425605,20.7221784 11.3291386,20.7079939 11.31714,20.6928518 C11.3104483,20.6867099 11.3044458,20.6797067 11.2985672,20.6725553 C11.2982033,20.6721262 11.2978433,20.6716937 11.2975424,20.6712141 C11.2845379,20.6560018 11.2723447,20.6402679 11.2616335,20.6236741 C11.2553209,20.616447 11.2498171,20.6085953 11.2445563,20.6005728 C11.2423862,20.597872 11.2404833,20.5950196 11.2387668,20.5920692 L11.1525906,20.4641402 C10.558003,19.5811776 10.3778147,19.3295658 10.1678804,19.1035911 C10.0995774,19.0300693 10.0346132,18.968805 9.96739115,18.9141033 C9.69043627,18.6887427 9.37128531,18.5196515 9.02821146,18.4165063 C8.69878231,18.3174655 8.38469043,18.3 7.06801818,18.3 L5.81818182,18.3 C4.36254967,18.3 4.01710472,18.2720566 3.48920268,18.0057487 C2.97601005,17.746946 2.55875303,17.333858 2.2972692,16.8258138 C2.0282244,16.3030999 2,15.9611005 2,14.52 L2,6.78 C2,5.33893022 2.02822413,4.99694304 2.29724925,4.47424298 C2.55871823,3.9661871 2.97594657,3.55313105 3.48911048,3.29428878 C4.01711418,3.02794188 4.36255577,3 5.81818182,3 L6.18181818,3 C8.91027874,3 9.55890526,3.05246453 10.4272369,3.49047177 Z M5.81818182,4.8 C4.72810786,4.8 4.46718171,4.82110565 4.3145384,4.89810524 C4.1434898,4.98438295 4.00442723,5.1220549 3.91726587,5.29141663 C3.83950065,5.44250989 3.81818182,5.70082678 3.81818182,6.78 L3.81818182,14.52 C3.81818182,15.5991695 3.83950281,15.8575194 3.91726471,16.0085991 C4.00442775,16.1779506 4.14349563,16.315629 4.31457728,16.4019054 C4.46719117,16.4788937 4.72811397,16.5 5.81818182,16.5 L7.06801818,16.5 C8.59745503,16.5 8.98175353,16.5213694 9.55653878,16.6941751 C10.115766,16.8623067 10.6368692,17.1355805 11.0909091,17.499575 L11.0909091,9.66000001 C11.0909091,7.32071611 11.0448166,6.76224501 10.7936329,6.27423225 C10.5321483,5.76617919 10.11494,5.35313427 9.60179455,5.09428094 C9.10885113,4.8456285 8.54473944,4.8 6.18181818,4.8 L5.81818182,4.8 Z M17.8181818,4.8 C15.4552541,4.8 14.8911419,4.8456282 14.3981998,5.09426545 C13.8850593,5.35313002 13.4678495,5.76618345 13.2063582,6.27424951 C12.9551834,6.76224501 12.9090909,7.32071611 12.9090909,9.66000001 L12.9090909,17.4995737 C13.3630972,17.135576 13.884214,16.8622988 14.4434496,16.6941813 C15.018194,16.5213697 15.4025062,16.5 16.932,16.5 L18.1818182,16.5 C19.2718823,16.5 19.5328384,16.4788915 19.685522,16.4018645 C19.8565099,16.3156285 19.9955843,16.1779448 20.0827405,16.0085713 C20.1604965,15.85751 20.1818182,15.5991635 20.1818182,14.52 L20.1818182,6.78 C20.1818182,5.70083283 20.1604986,5.44251926 20.0826781,5.29132535 C19.9955848,5.12206067 19.8565158,4.98438347 19.6854406,4.89808549 C19.5328478,4.82110779 19.2718884,4.8 18.1818182,4.8 L17.8181818,4.8 Z" id="Shape"></path>
                            </g>
                        </g>
                    </g>
                </g>
            </g>
        </g>
    </g>
</svg>