<?xml version="1.0" encoding="UTF-8"?>
<svg width="40px" height="40px" viewBox="0 0 40 40" version="1.1" xmlns="http://www.w3.org/2000/svg" xmlns:xlink="http://www.w3.org/1999/xlink">
    <title>Logo / Transaction / Deposit@2x</title>
    <g id="Apps-V2" stroke="none" stroke-width="1" fill="none" fill-rule="evenodd">
        <g id="APPS" transform="translate(-260, -336)">
            <g id="Stack-Copy-2" transform="translate(17, 320)">
                <g id="Button-Copy-7" transform="translate(178, 0)">
                    <g id="Stack" transform="translate(24, 16)" fill-rule="nonzero">
                        <g id="Logo-/-Transaction-/-Deposit" transform="translate(41, 0)">
                            <circle id="Combined-Shape" fill="#061A8E" cx="20" cy="20" r="20"></circle>
                            <g id="Graphic" transform="translate(8, 8)" fill="#FFFFFF">
                                <path d="M20.5109271,5.28612359 C21.024104,5.53781536 21.441357,5.93941802 21.7027219,6.43325437 C21.971774,6.9414628 22,7.27395788 22,8.675 L22,15.325 C22,16.7260758 21.971774,17.0585785 21.7027632,17.5666851 C21.4413248,18.0606342 21.0240355,18.4622751 20.5109381,18.7138623 C19.9829387,18.9728325 19.6374813,19 18.1818182,19 L5.81818182,19 C4.36254967,19 4.01710472,18.9728328 3.48920268,18.7139224 C2.97601005,18.4623086 2.55875303,18.0606953 2.2972692,17.5667634 C2.0282244,17.0585694 2,16.7260699 2,15.325 L2,8.675 C2,7.27395993 2.02822413,6.9414724 2.29724925,6.43329179 C2.5587146,5.93935542 2.97594672,5.5377729 3.48911048,5.2861141 C4.01711367,5.02716597 4.36255975,5 5.81818182,5 L18.1818182,5 C19.6374752,5 19.9829292,5.02716598 20.5109271,5.28612359 Z M3.81818182,11.125 L3.81818182,15.325 C3.81818182,16.3741926 3.83950281,16.6253661 3.91726471,16.7722491 C4.00442775,16.9368964 4.14349563,17.0707504 4.31457728,17.1546302 C4.46719117,17.2294799 4.72811397,17.25 5.81818182,17.25 L18.1818182,17.25 C19.2718823,17.25 19.5328384,17.2294779 19.685522,17.1545904 C19.8565099,17.0707499 19.9955843,16.9368908 20.0827405,16.7722221 C20.1604965,16.6253569 20.1818182,16.3741867 20.1818182,15.325 L20.1818182,11.125 L3.81818182,11.125 Z M12,13.75 C12,14.2332492 11.5929861,14.625 11.0909091,14.625 L6.54545455,14.625 C6.0433775,14.625 5.63636364,14.2332492 5.63636364,13.75 C5.63636364,13.2667508 6.0433775,12.875 6.54545455,12.875 L11.0909091,12.875 C11.5929861,12.875 12,13.2667508 12,13.75 Z M5.81818182,6.75 C4.72811298,6.75 4.46718092,6.77051977 4.31454711,6.84537583 C4.14349409,6.92926133 4.00442386,7.0631153 3.91726587,7.22776616 C3.83950065,7.3746624 3.81818182,7.62580382 3.81818182,8.675 L3.81818182,9.375 L20.1818182,9.375 L20.1818182,8.675 C20.1818182,7.62581462 20.1604982,7.37467074 20.0826825,7.2276858 C19.9955874,7.0631237 19.8565108,6.92926365 19.6854406,6.84536089 C19.5328478,6.77052146 19.2718884,6.75 18.1818182,6.75 L5.81818182,6.75 Z" id="Shape"></path>
                            </g>
                        </g>
                    </g>
                </g>
            </g>
        </g>
    </g>
</svg>