<?xml version="1.0" encoding="UTF-8"?>
<svg width="40px" height="40px" viewBox="0 0 40 40" version="1.1" xmlns="http://www.w3.org/2000/svg" xmlns:xlink="http://www.w3.org/1999/xlink">
    <title>Logo / Transaction / Deposit@2x</title>
    <g id="Apps-V2" stroke="none" stroke-width="1" fill="none" fill-rule="evenodd">
        <g id="APPS" transform="translate(-82, -344)">
            <g id="Stack-Copy-2" transform="translate(17, 320)">
                <g id="Stack" transform="translate(24, 24)" fill-rule="nonzero">
                    <g id="Logo-/-Transaction-/-Deposit" transform="translate(41, 0)">
                        <circle id="Combined-Shape" fill="#061A8E" cx="20" cy="20" r="20"></circle>
                        <g id="Graphic" transform="translate(8, 8)" fill="#FFFFFF">
                            <path d="M3.48920268,21.7027765 C2.97601005,21.4413596 2.55875303,21.024099 2.2972692,20.510923 C2.0282244,19.9829292 2,19.6374752 2,18.1818182 L2,10.3636364 C2,8.90801032 2.02822413,8.56256872 2.29724925,8.03458887 C2.5587146,7.52140823 2.97594672,7.10417964 3.48911048,6.84271594 C3.90673501,6.62992091 4.21015124,6.56777901 5.04123344,6.55129306 C4.83528278,6.12869256 4.72727273,5.66082276 4.72727273,5.18181818 C4.72727273,4.33794745 5.06249797,3.52863515 5.65920293,2.9319302 C6.25590788,2.33522524 7.06522018,2 7.90909091,2 C9.69168699,2 11.0194719,3.06222796 11.9442872,4.74371023 C11.963879,4.77933173 11.9832051,4.81508709 12,4.85200298 C12.0167951,4.81508683 12.0361211,4.7793316 12.0557128,4.74371023 C12.9805281,3.06222796 14.308313,2 16.0909091,2 C16.9347316,2 17.7440329,2.33521513 18.3408518,2.93195762 C18.9375122,3.52866892 19.2727273,4.33797302 19.2727273,5.18181818 C19.2727273,5.66081348 19.1647181,6.12867935 18.9587616,6.55129264 C19.7898806,6.56777825 20.0933027,6.62992093 20.5109271,6.84272581 C21.024104,7.10422375 21.441357,7.52147327 21.7027219,8.03454999 C21.971774,8.56255875 22,8.90800819 22,10.3636364 L22,18.1818182 C22,19.6374813 21.971774,19.9829387 21.7027632,20.5108416 C21.4413248,21.0240355 21.0240355,21.4413248 20.5109381,21.702714 C19.9829387,21.971774 19.6374813,22 18.1818182,22 L5.81818182,22 C4.36254967,22 4.01710472,21.9717743 3.48920268,21.7027765 Z M3.81818182,14.7272727 L3.81818182,18.1818182 C3.81818182,19.2718884 3.83950281,19.5328478 3.91726471,19.6854537 C4.00442775,19.8565158 4.14349563,19.9955848 4.31457728,20.0827327 C4.46719117,20.1604986 4.72811397,20.1818182 5.81818182,20.1818182 L11.0909091,20.1818182 L11.0909091,14.7272727 L3.81818182,14.7272727 Z M12.9090909,14.7272727 L12.9090909,20.1818182 L18.1818182,20.1818182 C19.2718823,20.1818182 19.5328384,20.1604965 19.685522,20.0826914 C19.8565099,19.9955843 19.9955843,19.8565099 20.0827405,19.6854256 C20.1604965,19.5328384 20.1818182,19.2718823 20.1818182,18.1818182 L20.1818182,14.7272727 L12.9090909,14.7272727 Z M5.81818182,8.36363636 C4.72811298,8.36363636 4.46718092,8.3849556 4.31454711,8.46272813 C4.14349409,8.5498819 4.00442386,8.68895096 3.91726587,8.86001679 C3.83950065,9.01263626 3.81818182,9.27356241 3.81818182,10.3636364 L3.81818182,12.9090909 L11.0909091,12.9090909 L11.0909091,8.36363636 L5.81818182,8.36363636 Z M12.9090909,8.36363636 L12.9090909,12.9090909 L20.1818182,12.9090909 L20.1818182,10.3636364 C20.1818182,9.27357363 20.1604982,9.01264492 20.0826825,8.8599333 C19.9955874,8.68895969 19.8565108,8.54988431 19.6854406,8.46271261 C19.5328478,8.38495736 19.2718884,8.36363636 18.1818182,8.36363636 L12.9090909,8.36363636 Z M6.94485162,4.21757889 C6.68912331,4.47330721 6.54545455,4.82015726 6.54545455,5.18181818 C6.54545455,5.5434791 6.68912331,5.89032916 6.94485162,6.14605747 C7.20057993,6.40178579 7.54742999,6.54545456 7.90909093,6.54545456 L10.7760587,6.54545456 C10.6550347,6.22711308 10.5133755,5.91484996 10.3511674,5.61992614 C9.7134826,4.46049931 8.91058574,3.81818182 7.90909091,3.81818182 C7.54742999,3.81818182 7.20057993,3.96185058 6.94485162,4.21757889 Z M13.6488326,5.61992614 C13.4866246,5.91484985 13.3449654,6.22711286 13.2239413,6.54545456 L16.0909091,6.54545456 C16.452545,6.54545456 16.7994244,6.40177604 17.0551482,6.1460849 C17.3108721,5.8903392 17.4545455,5.54347111 17.4545455,5.18181818 C17.4545455,4.82016526 17.3108721,4.47329717 17.0552168,4.21762002 C16.7994244,3.96186032 16.452545,3.81818182 16.0909091,3.81818182 C15.0894143,3.81818182 14.2865174,4.46049931 13.6488326,5.61992614 Z" id="Shape"></path>
                        </g>
                    </g>
                </g>
            </g>
        </g>
    </g>
</svg>