<?xml version="1.0" encoding="UTF-8"?>
<svg width="40px" height="40px" viewBox="0 0 40 40" version="1.1" xmlns="http://www.w3.org/2000/svg" xmlns:xlink="http://www.w3.org/1999/xlink">
    <title>Logo / Transaction / Deposit@2x</title>
    <g id="Apps-V2" stroke="none" stroke-width="1" fill="none" fill-rule="evenodd">
        <g id="APPS" transform="translate(-82, -224)">
            <g id="Stack-Copy" transform="translate(17, 200)">
                <g id="Stack" transform="translate(24, 24)" fill-rule="nonzero">
                    <g id="Logo-/-Transaction-/-Deposit" transform="translate(41, 0)">
                        <circle id="Combined-Shape" fill="#061A8E" cx="20" cy="20" r="20"></circle>
                        <g id="Graphic" transform="translate(8, 8)" fill="#FFFFFF">
                            <path d="M10.0159576,20.2502909 C10.5605388,20.7309924 11.2580743,21 12,21 C12.7419858,21 13.4394271,20.7310204 13.9840272,20.2502956 C14.3980775,19.8848085 15.0300174,19.9241768 15.3955044,20.3382272 C15.7609915,20.7522775 15.7216232,21.3842174 15.3075728,21.7497044 C14.4009386,22.550001 13.2341294,23 12,23 C10.7659406,23 9.59904,22.5499796 8.69242244,21.7497091 C8.27836955,21.3842249 8.2389968,20.7522853 8.60448093,20.3382324 C8.96996506,19.9241795 9.60190468,19.8848068 10.0159576,20.2502909 Z M16.9498131,3.0502595 C18.2625367,4.36300642 19,6.14347393 19,8 C19,10.5647091 19.5564297,12.5618015 20.4994674,14.0771154 C21.891258,16.3140233 21.7769053,16.1156108 21.7353765,16.6222618 C21.6970053,17.0917292 21.5122171,17.4242862 21.1341225,17.7046419 C20.7283812,18.005735 20.8755573,18 18.6112,18 L5.38887,18 C3.12526838,18 3.27185299,18.005712 2.86593511,17.7046921 C2.48778073,17.4241202 2.30308245,17.0916833 2.2646628,16.6222528 C2.22324858,16.1154979 2.10964458,16.3126099 3.50064305,14.0770665 C4.44360183,12.5617228 5.00002,10.5646471 5.00002,8 C5.00002,6.14348348 5.73751686,4.36300958 7.05027322,3.05025322 C8.36303228,1.73749416 10.1434873,1 12,1 C13.8564944,1 15.6369404,1.73748019 16.9498131,3.0502595 Z M8.46448678,4.46446678 C7.52680308,5.40215048 7.00002,6.67391661 7.00002,8 C7.00002,10.9336925 6.34147884,13.2973042 5.19873768,15.1337002 C4.94963164,15.534051 4.78432385,15.8005896 4.66298807,15.9988083 C4.8435771,15.9997246 5.07559712,16 5.38887,16 L18.6112,16 C18.9244729,16 19.1564917,15.9997246 19.3370788,15.9988082 C19.2158076,15.8006948 19.0505473,15.5342264 18.8013875,15.1337728 C17.6585625,13.2974318 17,10.9337727 17,8 C17,6.67389345 16.4732403,5.40213052 15.5356184,4.46449192 C14.5978379,3.52677813 13.3260749,3 12,3 C10.6739222,3 9.40217444,3.52677912 8.46448678,4.46446678 Z" id="Shape"></path>
                        </g>
                    </g>
                </g>
            </g>
        </g>
    </g>
</svg>