<?xml version="1.0" encoding="UTF-8"?>
<svg width="40px" height="40px" viewBox="0 0 40 40" version="1.1" xmlns="http://www.w3.org/2000/svg" xmlns:xlink="http://www.w3.org/1999/xlink">
    <title>Logo / Transaction / Deposit@2x</title>
    <g id="Apps-V2" stroke="none" stroke-width="1" fill="none" fill-rule="evenodd">
        <g id="APPS" transform="translate(-260, -224)">
            <g id="Stack-Copy" transform="translate(17, 200)">
                <g id="Button-Copy-7" transform="translate(178, 0)">
                    <g id="Stack" transform="translate(24, 24)" fill-rule="nonzero">
                        <g id="Logo-/-Transaction-/-Deposit" transform="translate(41, 0)">
                            <circle id="Combined-Shape" fill="#061A8E" cx="20" cy="20" r="20"></circle>
                            <g id="Shape" transform="translate(8, 8)" fill="#FFFFFF">
                                <path d="M17.743177,1.895458 C18.3164107,1.96567087 18.7906333,2.24728136 19.126591,2.71694288 C19.4790438,3.20958395 19.5,3.47330937 19.5,5.1262 L19.5,14.8736 C19.5,16.5266509 19.4790485,16.7903228 19.1266472,17.2827785 C18.7906657,17.7524927 18.3164793,18.0341025 17.7431412,18.1043864 C17.1395296,18.178298 16.9027847,18.0714825 15.3656619,17.2336123 C13.5017356,16.2175147 11.7946314,15.57998 10.5,15.5144133 L10.5,18.7499 C10.5,19.0821378 10.4986474,19.1610867 10.4855555,19.2939094 C10.3452774,20.7182904 9.21838171,21.8452348 7.79374979,21.9855149 C7.66096555,21.9985517 7.58201274,21.9999 7.25,21.9999 C6.91799352,21.9999 6.83904464,21.9985517 6.70597725,21.9854871 C5.28162594,21.845236 4.15473858,20.7183 4.01445262,19.2939917 C4.00135257,19.1610867 4,19.0821378 4,18.7499 L4,15.4880583 C3.44815298,15.4675087 3.19261659,15.4126487 2.851923,15.2715698 C2.11688906,14.9670868 1.53287089,14.3830448 1.22833834,13.64793 C1.02158838,13.1487098 1,12.8323005 1,11.4999 L1,10.2999 C1,7.9986737 1.04467068,7.45193119 1.43597219,6.68395203 C1.81946591,5.93129794 2.43138794,5.31937591 3.18403704,4.93588473 C3.95201013,4.54458023 4.49874838,4.49991 6.8,4.49991 L10.25,4.49991 C11.576679,4.49991 13.3823444,3.8473805 15.3656528,2.76626266 C16.9023613,1.92852347 17.1395171,1.82152151 17.743177,1.895458 Z M16.3229178,4.52229335 C14.0684309,5.75123278 11.9967076,6.49991 10.25,6.49991 L6.8,6.49991 C4.90085162,6.49991 4.44707737,6.53698477 4.09201797,6.71789781 C3.71569206,6.90964409 3.40973409,7.21560206 3.21798813,7.59192735 C3.0370748,7.94699285 3,8.4007663 3,10.2999 L3,11.4999 C3,12.4971995 3.01646958,12.7385853 3.07610263,12.8825758 C3.17761325,13.1276135 3.37232919,13.3223374 3.61721861,13.4237812 C3.76126908,13.4834315 4.00270305,13.4999 5,13.4999 C5.55228475,13.4999 6,13.9476153 6,14.4999 L6,18.7499 C6,18.9981622 6.00105493,19.0597383 6.00481446,19.0978802 C6.05158333,19.5727195 6.42721351,19.9483659 6.90167979,19.9950851 C6.94001088,19.9988484 7.00158648,19.9999 7.25,19.9999 C7.49841726,19.9999 7.55999997,19.9988483 7.59804623,19.995113 C8.07278993,19.9483661 8.44842182,19.5727179 8.49519262,19.0978083 C8.49894507,19.0597383 8.5,18.9981622 8.5,18.7499 L8.5,14.4999 C8.5,13.9476153 8.94771525,13.4999 9.5,13.4999 L10.25,13.4999 C11.9967323,13.4999 14.0685256,14.2486212 16.3229054,15.4775699 C17.0193205,15.8571788 17.3729304,16.0312013 17.4722628,16.0917926 C17.4739712,16.0694644 17.4768157,16.0394788 17.4798046,16.0018643 C17.4966291,15.7901301 17.5,15.5591522 17.5,14.8736 L17.5,5.1262 C17.5,4.44066082 17.4966291,4.20969228 17.4798047,3.99796359 C17.4768179,3.96037597 17.473975,3.93040349 17.4722629,3.90807173 C17.3728157,3.96867918 17.0191804,4.14272462 16.3229178,4.52229335 Z M23,7.99992 L23,11.9999 C23,12.5521847 22.5522847,12.9999 22,12.9999 C21.4477153,12.9999 21,12.5521847 21,11.9999 L21,7.99992 C21,7.44763525 21.4477153,6.99992 22,6.99992 C22.5522847,6.99992 23,7.44763525 23,7.99992 Z"></path>
                            </g>
                        </g>
                    </g>
                </g>
            </g>
        </g>
    </g>
</svg>