<?xml version="1.0" encoding="UTF-8"?>
<svg width="40px" height="40px" viewBox="0 0 40 40" version="1.1" xmlns="http://www.w3.org/2000/svg" xmlns:xlink="http://www.w3.org/1999/xlink">
    <title>Logo / Transaction / Deposit@2x</title>
    <g id="Apps-V2" stroke="none" stroke-width="1" fill="none" fill-rule="evenodd">
        <g id="APPS" transform="translate(-82, -104)">
            <g id="Stack" transform="translate(17, 80)">
                <g id="Stack" transform="translate(24, 24)" fill-rule="nonzero">
                    <g id="Logo-/-Transaction-/-Deposit" transform="translate(41, 0)">
                        <circle id="Combined-Shape" fill="#061A8E" cx="20" cy="20" r="20"></circle>
                        <g id="Graphic" transform="translate(8, 8)" fill="#FFFFFF">
                            <path d="M18.8159816,2.43596893 C19.5686448,2.8194605 20.1805404,3.43138723 20.563994,4.18401499 C20.9553266,4.95199625 21,5.49873942 21,7.8 L21,21 C21,21.8172868 20.0727976,22.289441 19.4118283,21.8087361 L17.278893,20.2575104 L15.374695,21.7808688 C15.0228535,22.062342 14.5262262,22.0737527 14.1618283,21.8087361 L12,20.2364973 L9.8381717,21.8087361 C9.47377381,22.0737527 8.97714648,22.062342 8.62530495,21.7808688 L6.72110699,20.2575104 L4.5881717,21.8087361 C3.92720238,22.289441 3,21.8172868 3,21 L3,7.8 C3,5.49874838 3.04467023,4.95201013 3.43597219,4.18404203 C3.81946591,3.43138794 4.43138794,2.81946591 5.18403704,2.43597473 C5.95201013,2.04467023 6.49874838,2 8.8,2 L15.2,2 C17.5012152,2 18.0479341,2.0446692 18.8159816,2.43596893 Z M8.8,4 C6.90085162,4 6.44707737,4.03707477 6.09201797,4.21798781 C5.71569206,4.40973409 5.40973409,4.71569206 5.21798527,5.09202296 C5.03707477,5.44707737 5,5.90085162 5,7.8 L5,19.03623 L6.1618283,18.1912639 C6.52622619,17.9262473 7.02285352,17.937658 7.37469505,18.2191312 L9.27889303,19.7424896 L11.4118283,18.1912639 C11.7624788,17.9362454 12.2375212,17.9362454 12.5881717,18.1912639 L14.721107,19.7424896 L16.625305,18.2191312 C16.9771465,17.937658 17.4737738,17.9262473 17.8381717,18.1912639 L19,19.0362299 L19,7.8 C19,5.90086058 18.9629234,5.44709125 18.7819794,5.0919929 C18.5902423,4.71565879 18.2843212,4.40972219 17.9080464,4.2180053 C17.5529064,4.03707093 17.0991848,4 15.2,4 L8.8,4 Z M16.2071068,7.29289322 C16.5976311,7.68341751 16.5976311,8.31658249 16.2071068,8.70710678 L11.7071068,13.2071068 C11.3165825,13.5976311 10.6834175,13.5976311 10.2928932,13.2071068 L8.29289322,11.2071068 C7.90236893,10.8165825 7.90236893,10.1834175 8.29289322,9.79289322 C8.68341751,9.40236893 9.31658249,9.40236893 9.70710678,9.79289322 L11,11.0857865 L14.7928932,7.29289322 C15.1834175,6.90236893 15.8165825,6.90236893 16.2071068,7.29289322 Z" id="Shape"></path>
                        </g>
                    </g>
                </g>
            </g>
        </g>
    </g>
</svg>