<?xml version="1.0" encoding="UTF-8"?>
<svg width="40px" height="40px" viewBox="0 0 40 40" version="1.1" xmlns="http://www.w3.org/2000/svg" xmlns:xlink="http://www.w3.org/1999/xlink">
    <title>Logo / Transaction / Deposit@2x</title>
    <g id="Apps-V2" stroke="none" stroke-width="1" fill="none" fill-rule="evenodd">
        <g id="APPS" transform="translate(-171, -464)">
            <g id="Button-Copy-8" transform="translate(106, 440)">
                <g id="Stack" transform="translate(24, 24)" fill-rule="nonzero">
                    <g id="Logo-/-Transaction-/-Deposit" transform="translate(41, 0)">
                        <circle id="Combined-Shape" fill="#061A8E" cx="20" cy="20" r="20"></circle>
                        <g id="Graphic" transform="translate(8, 8)" fill="#FFFFFF">
                            <path d="M16.9013369,20.9950179 C16.8864159,20.9937323 16.8716375,20.991949 16.8573468,20.98867 C16.8396077,20.9872879 16.8220558,20.9842921 16.8046158,20.9806222 C16.7877243,20.9775746 16.7710793,20.9738255 16.7550554,20.9685218 C16.7396981,20.9658274 16.724632,20.9616562 16.7097191,20.9568646 C16.6934293,20.9522819 16.6774418,20.9469871 16.6621563,20.9402282 C16.6468723,20.9359738 16.6319961,20.9302359 16.6173391,20.9238249 C16.6024423,20.9179944 16.5878661,20.9115326 16.5740504,20.9037336 C16.5584623,20.8977042 16.5434134,20.8901433 16.5286541,20.8818651 C16.514721,20.8747082 16.5011181,20.8670043 16.4883536,20.8580503 C16.4732729,20.85047 16.4588522,20.8413514 16.4447528,20.8315621 C16.4298259,20.8218252 16.4152965,20.8115324 16.4017755,20.799966 C16.3893519,20.7921798 16.3776411,20.7829908 16.3661815,20.7733493 C16.3406142,20.7525411 16.316182,20.7303956 16.2928932,20.7071068 L12.2928932,16.7071068 C11.9023689,16.3165825 11.9023689,15.6834175 12.2928932,15.2928932 C12.6834175,14.9023689 13.3165825,14.9023689 13.7071068,15.2928932 L16,17.5857864 L16,4 C16,3.44771525 16.4477153,3 17,3 C17.5522847,3 18,3.44771525 18,4 L18,17.5857864 L20.2928932,15.2928932 C20.6834175,14.9023689 21.3165825,14.9023689 21.7071068,15.2928932 C22.0976311,15.6834175 22.0976311,16.3165825 21.7071068,16.7071068 L17.7071068,20.7071068 C17.6838179,20.7303957 17.6593857,20.7525412 17.6338185,20.7733493 C17.6223589,20.7829908 17.6106481,20.7921798 17.5982245,20.799966 C17.5847036,20.8115323 17.5701742,20.8218251 17.5552472,20.8315621 C17.5411478,20.8413514 17.5267271,20.85047 17.5116464,20.8580503 C17.498882,20.8670043 17.4852789,20.8747083 17.4713458,20.8818651 C17.4565866,20.8901433 17.4415377,20.8977042 17.4259496,20.9037336 C17.412134,20.9115326 17.3975578,20.9179943 17.3826609,20.9238249 C17.3680039,20.9302359 17.3531277,20.9359738 17.3378437,20.9402282 C17.3225582,20.9469871 17.3065707,20.9522819 17.2902809,20.9568646 C17.275368,20.9616562 17.2603019,20.9658274 17.2449446,20.9685218 C17.2289207,20.9738255 17.2122757,20.9775746 17.1953842,20.9806222 C17.1779442,20.9842921 17.1603923,20.9872879 17.142653,20.98867 C17.1283624,20.991949 17.1135842,20.9937323 17.0986631,20.9950179 L17,21 C16.9670647,21 16.9341294,20.9983831 16.9013369,20.9950179 Z M7.09866311,3.00498208 C7.11358409,3.00626769 7.12836248,3.00805096 7.14265324,3.01133004 C7.16039235,3.01271214 7.17794424,3.01570788 7.19538422,3.01937776 C7.21227572,3.02242539 7.2289207,3.02617452 7.24494462,3.03147824 C7.2603019,3.03417256 7.275368,3.0383438 7.29028089,3.04313539 C7.30657073,3.04771814 7.32255821,3.05301287 7.33784368,3.05977181 C7.35312766,3.06402623 7.36800392,3.06976406 7.38266093,3.07617514 C7.39755773,3.08200565 7.41213393,3.08846741 7.42594961,3.09626644 C7.4415377,3.10229577 7.45658661,3.10985673 7.47134587,3.11813495 C7.48527898,3.12529177 7.49888194,3.13299566 7.51164643,3.14194975 C7.52672711,3.14952996 7.54114783,3.15864863 7.55524719,3.16843788 C7.57017411,3.17817482 7.58470352,3.18846761 7.59822455,3.20003399 C7.61064806,3.20782024 7.62235893,3.21700918 7.63381854,3.22665068 C7.65938577,3.24745892 7.68381795,3.26960439 7.70710679,3.29289324 L11.7071068,7.29289322 C12.0976311,7.68341751 12.0976311,8.31658249 11.7071068,8.70710678 C11.3165825,9.09763107 10.6834175,9.09763107 10.2928932,8.70710678 L8,6.41421357 L8,20 C8,20.5522847 7.55228475,21 7,21 C6.44771525,21 6,20.5522847 6,20 L6,6.41421357 L3.70710678,8.70710678 C3.31658249,9.09763107 2.68341751,9.09763107 2.29289322,8.70710678 C1.90236893,8.31658249 1.90236893,7.68341751 2.29289322,7.29289323 L6.29289323,3.29289324 C6.31618209,3.26960435 6.34061432,3.24745884 6.36618148,3.22665068 C6.37764107,3.21700918 6.38935194,3.20782024 6.40177547,3.20003399 C6.41529638,3.18846768 6.42982584,3.17817485 6.44475283,3.16843788 C6.45885217,3.15864863 6.47327289,3.14952996 6.48835359,3.14194975 C6.501118,3.13299569 6.51472107,3.12529174 6.52865415,3.11813495 C6.54341339,3.10985673 6.5584623,3.10229577 6.57405041,3.09626644 C6.58786602,3.08846744 6.60244216,3.0820057 6.61733909,3.07617514 C6.63199608,3.06976406 6.64687234,3.06402623 6.66215634,3.05977181 C6.67744179,3.05301287 6.69342927,3.04771814 6.70971913,3.04313539 C6.724632,3.0383438 6.7396981,3.03417256 6.7550554,3.03147824 C6.7710793,3.02617452 6.78772428,3.02242539 6.8046158,3.01937776 C6.82205576,3.01570788 6.83960765,3.01271214 6.85734701,3.01133002 C6.87163758,3.00805095 6.88641585,3.0062677 6.90133689,3.00498208 L7,3.00000002 C7.03293532,3.00000002 7.06587063,3.00161695 7.09866311,3.00498208 Z" id="Shape"></path>
                        </g>
                    </g>
                </g>
            </g>
        </g>
    </g>
</svg>